<?xml version="1.0" encoding="utf-8"?>
<!-- Generator: Adobe Illustrator 17.0.0, SVG Export Plug-In . SVG Version: 6.00 Build 0)  -->
<!DOCTYPE svg PUBLIC "-//W3C//DTD SVG 1.1//EN" "http://www.w3.org/Graphics/SVG/1.1/DTD/svg11.dtd">
<svg version="1.1" xmlns="http://www.w3.org/2000/svg" xmlns:xlink="http://www.w3.org/1999/xlink" x="0px" y="0px" width="1326px"
	 height="702px" viewBox="0 0 1326 702" enable-background="new 0 0 1326 702" xml:space="preserve">
<g id="Layer_1">
	<path fill="#030303" d="M712.39,55.56c38.36-5.39,76.76-11.42,115.54-12.5c32.56-0.46,66.14,2.16,96.19,15.74
		c21.8,9.68,40.5,25.99,53.07,46.25c-12.18,13.12-20.53,30.08-22.23,47.99c-0.64,9.1-0.36,18.33,1.65,27.25
		c3.05-18.46,5.28-37.95,15.6-54.09c3.47-5.23,8.87-10.82,15.74-9.94c7,1.62,10.29,9.02,11.55,15.43
		c2.52,13.57-0.56,27.55-5.64,40.18c-3.84,9.73-9.6,18.52-15.19,27.3c15.66-9.2,24.76-26.62,27.5-44.15
		c0.97-4.37,0.88-8.89,1.64-13.3c9.95,7.76,14.52,20.14,18.87,31.55c9.32,27.43,14.89,56.09,26.19,82.85
		c5.05,11.14,11.35,22.1,20.64,30.26c3.56,3.24,8.98,3.43,13.2,1.42c8.64-3.63,14.3-11.36,20.78-17.7
		c3.04-5.05,7.46-9.06,10.76-13.93c1.57-2.14,2.78-4.53,4.49-6.58c2.1,6.74,0.59,13.83,1.08,20.77c-1.85,7.9-4.22,15.8-6.97,23.49
		c-1.68,6.21-4.9,12.42-3.69,19.01c1.26,5.66,7.55,8.19,12.82,8.12c9.49-0.46,18.13-5.09,26.01-10.05
		c26.57-17.84,48.16-42.09,66.99-67.75c0,2.11-0.02,4.21-0.04,6.32c-0.35,0.09-1.06,0.26-1.41,0.34c1.11,1.11,0.56,2.76,0.57,4.16
		c-1.85,16.63-5.73,33.18-12.82,48.4c-13.83,31.05-40.98,54.63-71.71,68.21c-1.4,0.54-2.68,1.44-2.96,3
		c-3.85,12.26-8.97,24.24-16.4,34.78c-3.84,5.11-7.7,10.41-13.05,14.04c0.24-7.32-0.97-15.05-5.47-21.05
		c-4.1-5.61-11.94-8.71-18.64-6.34c-6.1,1.65-10.61,7.66-10.32,13.99c-0.32,8.9,5.55,16.24,10.92,22.71
		c-7.57-0.64-14.56-3.87-21.11-7.51c-5.03-2.14-9.55-6.54-15.29-6.2c-3.14,2.8-0.56,7.76-0.17,11.27
		c-21.13-10-41.42-22.07-59.5-36.97c-24.58-19.85-44.3-44.9-62.19-70.75c-1.48-3.08-5.62-5.82-4.28-9.54
		c10.35-31.65,8.76-66.05,0.71-98.02c-5.61-23.14-14.81-45.25-25.53-66.45c-0.6-1.26-1.24-2.5-1.88-3.73
		c-1.75,1.67,0.91,3.82,1.02,5.72c7.14,28.69,13.45,57.85,14.38,87.5c-0.08,15.7-1.58,32.24-9.95,45.95
		c-8.14,13.56-23.6,21.22-38.94,23.08c-18.94,2.5-38.07-0.05-56.68-3.73c8.64,6.62,18.39,11.82,28.43,16
		c7.88,3.15,16.27,4.56,24.65,5.55c-13.15,15.3-27.15,29.85-40.62,44.85c-11.79,13.28-22.62,27.56-30.77,43.39
		c-11.85,0.65-23.8-0.15-35.47-2.23c1.22,1.63,3.17,2.2,4.99,2.88c8.74,3.54,18.11,5.31,27.52,5.67c-0.39,1.5-0.87,3.34-2.23,4.23
		c-5.97,0.32-11.89-0.73-17.85-0.83c-4.09-0.79-8.38-0.49-12.28-2.07c0.53,1.04,1.35,1.77,2.44,2.18c8.25,3.54,17.1,5.98,26.11,6.3
		c-0.52,1.85-1.04,3.7-1.68,5.52c-8.97-0.84-18.09-0.6-26.92-2.63c0.82,2.09,3.17,2.47,5.01,3.25c6.72,2.07,13.5,4.24,20.55,4.77
		c-3.66,12.61-3.39,25.83-2.98,38.83c1,5.25,1.24,10.64,2.74,15.79c-18.12,0.26-36.24,0.03-54.36,0.12
		c-2.28-13.86-5.16-27.74-4.87-41.85c0.25-5.05,0.14-10.11,0.48-15.15c2.69-21.56,11.28-41.69,19-61.8
		c2.15-5.93,5.44-11.35,7.7-17.24c7.53-18.09,10.44-37.62,12.58-56.97c3.12-26.53,3.57-54.03,14.15-79
		c-2.44,2.32-3.73,5.5-5.39,8.35c-10.29,19.44-13.62,41.48-17.7,62.83c-4.04,21.24-8.12,43.17-19.28,62.02
		c-2.43,3.21-4.01,7.88-8.32,8.93c-48.49,16.33-99.5,27.65-150.9,24.98c-39.45-1.85-78.86-13.81-111.14-36.93
		c-0.54-17.1-1.25-34.19-3.35-51.17c-5.23-42.92-15.81-85.15-31.09-125.59c-1.57,2.35,0.8,4.86,1.18,7.25
		c6.49,24.34,11.45,49.08,15.42,73.95c-26.26,2.27-52.68,4.61-79.06,2.86c-17.08-0.86-34.17-3.44-50.41-8.9
		c-9.78-3.38-19.2-8.11-27.19-14.75c-3.43-2.9-6.3-6.37-9.56-9.44c1.68,9.53,8.61,17.08,16.2,22.59
		c10.59,7.43,22.83,12.12,35.13,15.86c38.25,10.89,78.22,13.66,117.81,14.01c0.59,6.38,1.21,12.76,1.87,19.13
		c-22.47,2.52-45.1,3.85-67.73,3.4c-17.16-0.3-34.4-1.9-51.05-6.25c-17.87-4.48-35.54-12.93-47.15-27.67
		c1.75,9.51,8.28,17.41,16.06,22.81c13,9.21,28.35,14.36,43.63,18.36c35.12,8.53,71.37,11.52,107.44,11.6
		c0.04,5.42,0.17,10.84,0.32,16.26c-18.38,1.97-36.84,2.96-55.32,3.26c-21.98-0.31-44.23-1.61-65.39-8.05
		c-11.89-3.71-23.66-8.81-33.07-17.16c-3.15-2.39-5.36-5.72-8.29-8.32c1.66,8.65,7.37,16.07,14.39,21.17
		c11.73,9.31,26.2,14.18,40.41,18.3c27.35,7.61,55.74,10.47,83.98,12.37c7.72-0.1,15.43,0.33,23.14,0.51
		c-0.94,4.26-3.01,8.54-6.99,10.7c-6.41,3.53-14.02,3.35-21.12,3.56c-2.48,11.94-2.15,24.19-1.95,36.33
		c0.03,1.38,0.34,2.73,0.66,4.08c-10.14,0.51-20.24-0.81-30.25-2.23c3.15,2.44,7.09,3.53,10.8,4.84c6.39,1.93,13.03,3.35,19.74,3.38
		c0.37,1.47,0.7,2.97,0.94,4.48c-9.55,0.05-19.08-0.86-28.55-1.95c-0.93-0.4-1.84-0.84-2.73-1.29c0.77,2.69,3.82,2.89,5.99,3.93
		c8.24,3.4,17.12,4.65,25.93,5.38c0.81,1.56,1.18,3.3,1.47,5.02c-11.21,0-22.56-0.46-33.54-2.74c1.59,2.22,4.53,2.64,6.87,3.75
		c9,3.6,18.71,4.65,28.31,5.27c5.29,19.2,14.76,37.03,26.59,52.97c-21.3-0.13-42.6,0.01-63.89-0.07
		c-9.04-12.24-18.41-24.36-25.55-37.86c-14.11-25.21-18.01-54.63-18.05-83.11c-10.62-2.85-21.4-5.51-31.41-10.23
		c-18.15-8.09-34.32-21.12-44.66-38.23c-14.8-23.88-18.59-52.8-17.77-80.4c1.66-40.15,12.04-79.37,24.13-117.49
		c-2.1,1.75-2.98,4.35-3.85,6.84c-16.61,33.53-26.56,70.41-28.86,107.75c-1.07,10.19,0.22,20.5-0.75,30.69
		c-3.69-12.67-6.49-25.72-6.84-38.95c-1.06-8.61,0.16-17.25,0.2-25.89c2.48-26.51,10.21-52.42,21.7-76.39
		c8.57-17.87,20.49-34.35,35.85-46.97c20.67-17.3,46.92-26.54,73.3-30.56c13.94-2.08,28.01-3.46,42.13-3.18
		c11.66-0.88,23.35,0.22,35.02,0.12c8.64,1.18,17.41,0.46,26.06,1.64c11.17,0.7,22.29,1.59,33.45,2.59
		c5.51,0.78,11.16,0.41,16.56,1.89c10.3-0.24,20.5,1.48,30.76,2.12c6.03,0.81,12.16,0.46,18.17,1.51
		c14.01,0.43,27.95,2.16,41.98,2.23c13.31,0.86,26.67,0.98,40.02,0.94C664.3,62.32,688.39,59.12,712.39,55.56z"/>
	<path fill="#030303" d="M267.78,84.09c-13.4,18.65-26.03,37.99-35.84,58.81c-16.03,33.16-24.29,70.77-19.23,107.53
		c2.86,22.82,10.22,44.92,20.17,65.6c3.83,7.02,6.19,14.9,6.15,22.94c-0.68,13.67-5.61,26.59-10.59,39.18
		c-4.56,11.75-9.38,23.5-11.97,35.88c-2.65,19.55,3.21,38.8,9.32,57.14c2.48,6.93,4.45,14.1,7.77,20.69c-1.79-0.63-1.92-3-3.11-4.31
		c-8.56-12.36-18.28-24.28-23.47-38.58c-5.49-14.59-6.09-30.6-3.33-45.84c2.61-17.32,9.64-33.46,15.86-49.69
		c3.4-9.46,6.87-20.43,1.99-30.02c-12.06-20.77-20.92-43.58-24.44-67.41c-1.57-11.9-3.07-24-1.35-35.97
		c2.27-28.73,12.24-56.56,27.26-81.06C235.14,118.6,250.93,100.7,267.78,84.09z"/>
	<path fill="#030303" d="M1060.62,97.02c3.66,1.77,5.46,5.95,4.93,9.9c-0.87,8.13-5.26,15.33-9.68,22.02
		c-7.34,10.53-16.1,20.16-26.36,27.9c-2.45-11.72-11.7-20.15-20.75-27.16C1028.97,124.65,1046.88,112.47,1060.62,97.02z"/>
	<path fill="#030303" d="M912.58,262.95c0.48,4.89-0.44,9.74-0.82,14.6c-1.46,11.04-3.08,23.03-10.72,31.72
		c6.35,14.17,14.02,27.8,23.69,40c24.64,32.49,58.53,56.79,94.39,75.55c3.91,2.26,8.32,3.58,12.06,6.13
		c-34.95-11.35-70.09-24.91-98.96-48.25c-14.72-11.88-27.57-26.01-38.42-41.48c-4.36-5.12-12.28-0.69-13.71,4.83
		c-11.27,46.8-8.7,96.67,6.8,142.22c-18.61-35.73-25.17-77.28-20.34-117.14c2.06-18.37,5.72-36.55,10.87-54.3
		c-5.17-0.76-10.46-0.9-15.48-2.44c7.75-0.66,15.65-2.07,22.43-6.13C900.53,298.98,909.66,280.83,912.58,262.95z"/>
	<defs>
		<filter id="Adobe_OpacityMaskFilter" filterUnits="userSpaceOnUse" x="284.86" y="50.16" width="925.07" height="301.06">
			<feColorMatrix  type="matrix" values="1 0 0 0 0  0 1 0 0 0  0 0 1 0 0  0 0 0 1 0"/>
		</filter>
	</defs>
	<mask maskUnits="userSpaceOnUse" x="284.86" y="50.16" width="925.07" height="301.06" id="SVGID_1_">
		<g filter="url(#Adobe_OpacityMaskFilter)">
		</g>
	</mask>
	<g mask="url(#SVGID_1_)">
		<path fill="#FEFEFE" d="M1033.08,308.95c-0.57,6.2,4.64,12.24,10.97,12.06c7.06,0.18,13.27-8.18,9.73-14.66
			C1047.96,311.1,1039.87,312.09,1033.08,308.95z"/>
		<path fill="#FEFEFE" d="M680.07,147.84c-12.14,2.03-24.36,4.27-36.69,4.07c11.52-14.96,26.48-26.95,42.21-37.25
			c9.68-6.48,20.17-11.6,30.24-17.4c-44.87,9.84-90.84,15.15-136.82,14.95c-58.53,0.39-117.06-6.95-173.83-21.16
			c17.56,33.66,32.72,68.66,43.84,104.99c12.41,39.89,20.47,81.19,22.95,122.91c0.16,6.25-0.78,12.6,0.54,18.79
			c0.59-0.48,0.96-1.08,1.11-1.8c0.97-24.93,2.48-49.94,0.42-74.86c-2.16-32.89-9.38-65.41-20.77-96.34
			c-6.66-18.78-15.32-36.76-23.97-54.68c34,6.09,68.32,10.43,102.77,12.7c21.65,0.76,43.32,0.79,64.97-0.09
			c7.95-0.81,15.92-1.38,23.86-2.3c16.23-1.39,32.25-4.56,48.3-7.25c-3.34,2.46-7.21,4.04-10.73,6.21
			c-25.23,14.73-47.68,34.18-66.28,56.65c51.49-3.72,102.58-13.91,151.59-30.29c2.87,9.21,2.1,19.02,0.84,28.44
			c-3.72,21.56-11.23,42.2-17.8,62.99c-11.44,35.04-21.68,71.34-20.64,108.53c0.26-0.43,0.77-1.27,1.02-1.69
			c1.59-14.56,4.61-28.94,8.51-43.05c10.07-36.93,26.44-71.65,39.94-107.36c7.26-19.88,13.66-40.44,14.67-61.71
			c0.81-4.23-0.02-8.49-0.24-12.73C740.86,130.88,711.04,141.71,680.07,147.84z"/>
		<path fill="#FEFEFE" d="M926.17,77.96c12.85,4.67,24.94,11.13,36.92,17.65c-0.27-0.36-0.83-1.1-1.11-1.46
			c-14.06-12.92-29.9-24.14-47.58-31.51c-24.34-10.49-51.26-13.36-77.53-12.26C795.75,52.62,755.52,62.05,715.03,69
			c-31.75,5.56-63.74,10.09-95.94,11.5c-34.69,1.2-69.42-1.56-103.84-5.86c-43.63-4.73-87.21-12.86-131.28-10.7
			c-29.93,1.01-60.61,9.43-83.98,28.84c-4.54,3.85-8.76,8.05-13.06,12.15c-0.93,0.86-1.75,1.85-2.07,3.1
			c3.23-2.55,6.22-5.39,9.17-8.27c10.25-8.65,22.3-14.96,34.91-19.41c-5.14,3.67-10.21,7.52-14.54,12.13
			c-11.49,12.4-20.27,27.14-27.2,42.49l0.65-0.37c9.61-12.07,19.87-24.01,32.25-33.42c9.38-7.16,21.18-12.85,33.26-10.56
			c14.34,2.46,25.29,13.01,34.91,23.18c2.4,2.13,3.66,5.23,6.12,7.29c-0.2-0.88-0.4-1.76-0.61-2.63c-4.15-8.05-8.34-16.18-14-23.31
			c-7.42-9.85-18.02-18.64-30.79-19.58c10.16-2.45,20.65-2.64,31.05-3.09c25.78-0.37,51.4,2.91,76.89,6.34
			c54.73,7.78,109.71,17.4,165.22,14.86c31.45-2.08,62.74-6.11,93.78-11.52c25.42-4.15,50.69-9.23,76.18-12.9
			c-20.93,9.93-40.46,22.47-59.73,35.25c-1.91,1.43-4.55,2.19-5.66,4.47c9.02-4.48,18.19-8.72,27.4-12.83
			c16.68-7.28,33.71-14.53,51.85-17.13c13.49-2,27.87,0.08,39.51,7.48c13.9,8.63,23.85,22.13,32.27,35.89
			c1.17,1.65,1.07,4.26,3.26,5.05c-0.47-5.6-3.44-10.67-4.21-16.25c5.4,0.36,10.81,0.1,16.22-0.03c7.62,0.78,15.31,0.6,22.9,1.72
			c6.52,0.27,12.92,2.01,19.44,2.05c-19.18-9.76-40.92-13.73-62.31-14.04c-2.07-2.92-2.99-6.62-4.63-9.83
			c27.91-1.41,55.13,6.74,81.31,15.51c-2.01-2.23-4.68-3.68-7.15-5.33c-24.29-15.79-53.52-22.57-82.21-23.27
			c-4.32-5.31-9.37-10.04-15.27-13.54C872.63,63.93,900.41,68.01,926.17,77.96z"/>
		<path fill="#FEFEFE" d="M1084.47,296.75c2.88,2.95,5.85,5.88,7.93,9.5c14.19-10.73,22.6-27.4,26.64-44.41
			c-3.96,5.45-7.56,11.19-12.17,16.14C1100.8,285.74,1092.57,291.35,1084.47,296.75z"/>
		<path fill="#FEFEFE" d="M1131.72,330.28c1.33,6.9,2.89,13.96,1.11,20.94c32.2-18.72,59.29-47.05,73.91-81.53
			c0.99-2.89,3.03-5.47,3.19-8.59C1189.16,289.2,1164.09,315.71,1131.72,330.28z"/>
	</g>
	<path fill="#030303" d="M247.26,324.62c4.3,8.08,9.5,15.68,15.6,22.51c2.15,2.51,4.53,4.81,6.94,7.08
		c15.4,13.45,33.29,23.87,52.27,31.4c-10.44,7.68-20,16.93-26.44,28.28c-12.41,0.91-24.74-0.77-37.05-1.88
		c10.09,5.99,21.99,7.69,33.47,8.78c-0.43,1.12-0.87,2.23-1.32,3.35c-10.86,0.47-21.64-0.86-32.38-2.2
		c8.96,5.62,19.8,7.58,30.21,8.66c-0.37,1.59-0.71,3.2-1.09,4.8c-9.76,0.04-19.43-1.26-29.1-2.3c1.25,1.94,3.7,2.01,5.62,2.93
		c7.17,3.05,14.86,4.7,22.6,5.44c-2.16,18.16,3.6,36.02,10.61,52.53c-18.74-0.04-37.47,0.03-56.21-0.11
		c-6.4-17.69-11.76-36.05-12.58-54.96c-0.64-12.93,2.11-25.83,6.69-37.88c4.93-13.02,10.12-26.15,11.84-40.07
		c1.51-8.6,0.98-17.35,1.09-26.03C248.07,331.49,247.75,328.04,247.26,324.62z"/>
	<path fill="#030303" d="M852.72,341.76c3.03-3.2,6.42-6.07,8.88-9.77c-1.59,4.83-1.47,9.96-2.49,14.91
		c-3.28,19.52-4.88,39.34-4.1,59.14c-9.7,0.31-19.39-0.46-28.98-1.88c-1.15-0.11-2.29-0.1-3.43,0.04
		c10.14,4.93,21.36,7.29,32.58,7.81c0.17,1.36,0.35,2.72,0.54,4.09c-11.29,0.67-22.48-1.01-33.66-1.9
		c10.64,4.95,22.33,7.87,34.09,7.86c0.34,1.67,0.65,3.34,0.97,5.04c-11.78,0.87-23.5-0.85-35.18-1.82
		c11.21,5.25,23.56,8.08,35.96,7.92c4.21,21.71,12.52,42.71,25.33,60.8c-18.95,0-37.91,0-56.86,0
		c-9.93-13.47-17.93-28.37-23.16-44.29c-4.47-13.2-7.27-26.92-9.2-40.71C813.34,386.43,833.3,364.29,852.72,341.76z"/>
	<path fill="#030303" d="M432.94,388.12c8.47-3.33,14.5-10.77,18.58-18.65c32.49,17.38,68.74,27.74,105.46,30.52
		c52.61,4.47,105.42-5.7,155.21-22.33c-12.12,26.93-14.64,57.55-9.69,86.5c1.58,9.16,3.49,18.3,6.34,27.16
		c-14.33-19.07-21.55-43.57-19.05-67.35c0.38-10.2,3.54-19.98,5.44-29.92c-30.47,10.41-62.19,17.43-94.3,19.97
		c-11.62,0.43-23.26,1.73-34.86,0.37c-32.33-1.1-64.28-8.83-93.96-21.6c-5.18-1.95-9.85-5.17-15.18-6.66
		c-1.93,7.7-9.28,13.43-17.1,14.06c-2.02,0.21-4.06-0.01-6.07,0.19c-5.7,30.52,2.67,61.42,13.22,89.95
		c-11.42-18.18-20.25-38.18-24.54-59.28c-2.86-13.19-3.17-26.77-2.43-40.21C424.35,390.1,428.86,389.93,432.94,388.12z"/>
	<path fill="#030303" d="M609.39,494.05c4.2-0.1,8.4-0.04,12.61-0.05c-0.06,5,0.11,10.01-0.06,15.01
		c-0.74,5.69-1.91,11.32-2.85,16.99c-2.3-0.01-4.58,0-6.86-0.01c-0.81-5.32-1.82-10.6-2.61-15.92
		C609.17,504.75,609.58,499.39,609.39,494.05z"/>
	<path fill="#030303" d="M148.04,511c23.67,0,47.33,0,70.99,0c7.5,0.05,15.93,2.02,20.5,8.49c4.47,6.22,3.93,14.22,3.91,21.49
		c-0.16,6.53,0.73,13.39-1.9,19.58c-1.15,2.99-3.9,4.94-6.53,6.56c-6.42,3.66-13.88,4.79-21.13,5.45
		c8.58,12.55,17.46,24.89,26.14,37.38c-10.32-0.02-20.64,0.08-30.97,0.05c-8.73-12.64-17.43-25.31-26.18-37.95
		c-2.66,0.01-5.32,0.01-7.98,0.01c0,12.65-0.01,25.29,0,37.94c-8.95,0-17.89,0-26.84,0C148.05,577,148.05,544,148.04,511z"/>
	<path fill="#030303" d="M253.94,511c8.94,0,17.89-0.01,26.83,0.01c-0.02,12.66-0.01,25.32-0.01,37.99c14.12,0,28.23,0,42.35,0
		c0-12.67,0-25.33,0-38c8.95,0,17.89,0,26.84,0c0,33,0,66,0.01,99c-8.95,0-17.9,0-26.85,0c0-13.32,0-26.63,0-39.94
		c-14.12,0-28.23,0-42.35,0c0.01,13.31-0.02,26.62,0.02,39.92c-8.95,0.04-17.89,0.01-26.84,0.02C253.94,577,253.94,544,253.94,511z"
		/>
	<path fill="#030303" d="M365.94,511c8.92,0.01,17.85-0.02,26.77,0.02c-0.01,32.98-0.04,65.96,0.02,98.95
		c-8.93,0.07-17.86,0.01-26.79,0.03C365.94,577,365.94,544,365.94,511z"/>
	<path fill="#030303" d="M405.05,511c23.33,0.01,46.67-0.02,70,0.01c7.01,0.11,14.39,2.25,19.3,7.5c4.39,4.66,6.12,11.22,6.09,17.5
		c0.01,24.67,0,49.33,0,73.99c-8.94,0-17.88,0-26.82,0c0-22,0-44.01,0-66.01c0-2.78-0.39-5.95-2.7-7.8
		c-2.54-1.93-5.9-2.07-8.95-2.13c-10.03,0-20.05,0-30.08,0c0,25.31-0.01,50.62,0,75.94c-8.95,0-17.9,0-26.85,0
		C405.05,577,405.05,544,405.05,511z"/>
	<path fill="#030303" d="M529.52,511.64c3.48-0.6,7.02-0.68,10.54-0.65c14.66,0.05,29.33-0.06,43.99,0.06
		c6.95,0.34,14.79,1.83,19.36,7.61c4.23,5.47,4.41,12.74,4.29,19.35c-0.02,15.66,0.02,31.32-0.01,46.99
		c0,5.72-1.53,11.63-5.29,16.06c-4.94,5.92-12.74,8.88-20.33,8.93c-15.04,0.01-30.07,0.03-45.1-0.01
		c-7.75-0.12-15.67-3.31-20.49-9.52c-3.42-4.34-4.81-9.96-4.79-15.41c-0.02-15.69,0.01-31.38-0.01-47.06
		c-0.11-6.29-0.02-13.08,3.65-18.47C518.46,514.76,524.12,512.54,529.52,511.64z"/>
	<path fill="#030303" d="M625.39,516.28c5.75-4.61,13.53-5.29,20.63-5.29c22.92,0.04,45.84-0.02,68.76,0.03
		c-0.04,7.67-0.02,15.34-0.01,23.02c-20.95,0.09-41.9-0.08-62.85,0.08c-6.1,0.33-7.87,8.51-5.12,13.02
		c1.47,2.43,4.55,2.86,7.15,2.85c12.01,0.04,24.02-0.02,36.03,0.02c7.49,0.22,16.16,1.67,20.87,8.17
		c4.67,6.62,3.82,15.11,3.92,22.78c0.16,6.39-0.46,13.2-4.3,18.56c-4.75,6.88-13.21,10.44-21.42,10.47
		c-23.41,0.02-46.82,0-70.24,0.01c0-7.34,0-14.67,0-22c20.77-0.06,41.54,0.12,62.31-0.09c9.3,0.02,9.01-16.36-0.03-16.77
		c-12.35-0.25-24.72,0.07-37.07-0.15c-8.92-0.12-18.22-4.45-22.47-12.59c-3.89-7.18-2.47-15.59-2.74-23.4
		C618.66,528.32,619.95,520.77,625.39,516.28z"/>
	<path fill="#030303" d="M788.4,511.04c30.66-0.09,61.32-0.01,91.98-0.04c0,7.68,0,15.37,0,23.06c-10.88,0-21.75-0.01-32.62,0
		c0,25.31-0.01,50.62,0.01,75.93c-8.92,0.02-17.85,0-26.77,0.01c0-25.32,0-50.63,0-75.94c-10.87-0.04-21.73,0.09-32.59-0.07
		C788.44,526.34,788.45,518.69,788.4,511.04z"/>
	<path fill="#030303" d="M887.94,511c8.94,0,17.89-0.01,26.83,0.01c0.1,22.67-0.27,45.35,0.04,68.01c-0.04,4.38,3.88,7.62,8.08,7.72
		c11.18,0.58,22.4,0.11,33.6,0.26c0.04-25.35-0.08-50.69,0.06-76.04c8.92,0.08,17.84,0.02,26.76,0.04c0.01,33,0,66,0,99
		c-23.44-0.02-46.89,0.03-70.33-0.02c-8.14-0.14-16.81-3.43-21.3-10.55c-3.57-5.43-3.92-12.14-3.75-18.44
		C887.95,557.66,887.93,534.33,887.94,511z"/>
	<path fill="#030303" d="M994.05,511c23.98,0.02,47.97-0.03,71.95,0.03c7.39,0.17,15.65,2.43,19.89,9
		c4.49,6.78,3.42,15.26,3.55,22.97c-0.11,6.69,0.73,14.16-3.29,19.97c-6.65,7.18-17.01,8.7-26.27,9.6
		c8.58,12.55,17.46,24.89,26.14,37.38c-10.32-0.02-20.65,0.08-30.97,0.05c-8.74-12.64-17.43-25.32-26.19-37.95
		c-2.66,0.01-5.32,0.01-7.97,0.01c0,12.65-0.01,25.29,0,37.94c-8.95,0-17.9,0-26.84,0C994.05,577,994.05,544,994.05,511z"/>
	<path fill="#030303" d="M1096.11,511c31.73,0,63.47,0,95.2,0c0,7.68,0,15.37,0,23.06c-22.85,0-45.7,0-68.55,0
		c-0.01,4.98,0,9.96,0,14.94c17.07,0,34.13,0,51.19,0c0,7.69,0,15.37,0,23.06c-17.06,0-34.13,0-51.19,0
		c0.01,12.64-0.02,25.28,0.02,37.92c-8.9,0.04-17.78,0.01-26.67,0.02C1096.11,577,1096.12,544,1096.11,511z"/>
	<defs>
		<filter id="Adobe_OpacityMaskFilter_1_" filterUnits="userSpaceOnUse" x="174.89" y="533.345" width="887.779" height="54.665">
			<feColorMatrix  type="matrix" values="1 0 0 0 0  0 1 0 0 0  0 0 1 0 0  0 0 0 1 0"/>
		</filter>
	</defs>
	<mask maskUnits="userSpaceOnUse" x="174.89" y="533.345" width="887.779" height="54.665" id="SVGID_2_">
		<g filter="url(#Adobe_OpacityMaskFilter_1_)">
		</g>
	</mask>
	<path mask="url(#SVGID_2_)" fill="#FEFEFE" d="M543.37,533.58c8.86-0.48,17.76-0.05,26.63-0.21c2.83,0.1,5.97-0.45,8.47,1.22
		c2.32,1.66,2.45,4.82,2.47,7.41c-0.01,11.99,0.02,23.97-0.01,35.96c-0.07,2.9-0.31,6.26-2.6,8.35c-1.99,1.82-4.87,1.63-7.37,1.7
		c-8.34-0.06-16.69,0.06-25.02-0.06c-2.33,0-4.84-0.87-6.04-2.98c-1.56-2.69-1.44-5.93-1.47-8.93c0.07-11.99-0.08-23.99,0.07-35.98
		C538.43,537.11,540.21,533.93,543.37,533.58z M174.89,551c11.03-0.02,22.07,0.03,33.11-0.02c2.83,0.04,6.15-0.74,7.51-3.52
		c1.55-3.43,1.55-7.68-0.23-11.01c-1.48-2.47-4.58-3.13-7.25-3.07c-11.05,0.17-22.09,0.49-33.14,0.64
		C174.89,539.68,174.89,545.34,174.89,551z M1020.89,551c11.04-0.02,22.07,0.03,33.11-0.02c3.05,0.11,6.63-0.97,7.79-4.11
		c2.01-4.91,0.77-13.13-5.8-13.38c-11.69-0.16-23.4,0.47-35.1,0.53C1020.88,539.68,1020.88,545.34,1020.89,551z"/>
</g>
<g id="Layer_2">
	<rect x="148.04" y="636.5" fill="#231F20" width="1043.27" height="43"/>
</g>
<g id="Layer_3">
	<text transform="matrix(1 0 0 1 225.5 672.5)" fill="#FFFFFF" font-family="'Arial-Black'" font-size="42" letter-spacing="76">EQUIPMENT</text>
</g>
</svg>
